<svg width="147" height="34" viewBox="0 0 147 34" fill="none" xmlns="http://www.w3.org/2000/svg">
<path d="M13.952 0.959999C16.384 0.959999 18.112 1.49333 19.136 2.56C19.904 3.37067 20.288 4.39467 20.288 5.632C20.288 6.05867 20.2453 6.50667 20.16 6.976L19.712 9.472C19.456 10.8587 19.008 11.9787 18.368 12.832C17.7493 13.6853 17.056 14.2933 16.288 14.656L19.2 24H12.736L10.048 15.392H8.064L6.752 24H0.608L4.672 0.959999H13.952ZM11.936 5.952H9.536L8.704 11.52H10.944C12.0747 11.52 12.8853 11.2533 13.376 10.72C13.8667 10.1653 14.112 9.44 14.112 8.544C14.112 6.816 13.3867 5.952 11.936 5.952ZM31.0845 8.16C33.3885 8.16 35.1272 8.66133 36.3005 9.664C37.2178 10.4533 37.6765 11.552 37.6765 12.96C37.6765 13.4293 37.6232 13.9413 37.5165 14.496L36.8445 18.24C36.4392 20.5013 35.4898 22.1013 33.9965 23.04C32.5245 23.9787 30.5512 24.448 28.0765 24.448C25.6018 24.448 23.7885 23.9787 22.6365 23.04C21.7832 22.336 21.3565 21.28 21.3565 19.872C21.3565 19.3813 21.4098 18.8373 21.5165 18.24L22.1885 14.496C22.9352 10.272 25.9005 8.16 31.0845 8.16ZM31.9485 15.136C31.9912 14.9227 32.0125 14.656 32.0125 14.336C32.0125 13.9947 31.8738 13.6213 31.5965 13.216C31.3192 12.8107 30.8285 12.608 30.1245 12.608C29.4418 12.608 28.8658 12.8427 28.3965 13.312C27.9272 13.76 27.6285 14.368 27.5005 15.136L27.0845 17.536C27.0418 17.7493 27.0205 18.0267 27.0205 18.368C27.0205 18.688 27.1592 19.04 27.4365 19.424C27.7138 19.808 28.1938 20 28.8765 20C29.5805 20 30.1672 19.7653 30.6365 19.296C31.1058 18.8053 31.4045 18.2187 31.5325 17.536L31.9485 15.136ZM55.003 19.072C55.003 19.6267 55.2803 19.904 55.835 19.904C56.411 19.904 56.891 19.7973 57.275 19.584L57.115 23.2C56.091 24.032 54.939 24.448 53.659 24.448C51.2483 24.448 49.9363 23.52 49.723 21.664C48.443 23.52 46.715 24.448 44.539 24.448C42.3843 24.448 40.987 23.9573 40.347 22.976C39.9203 22.3573 39.707 21.6533 39.707 20.864C39.707 20.0747 39.771 19.3493 39.899 18.688L41.691 8.608H47.131L45.627 17.12C45.563 17.504 45.531 17.888 45.531 18.272C45.531 19.296 46.107 19.808 47.259 19.808C48.219 19.808 48.987 19.4773 49.563 18.816L51.387 8.608H56.827L55.035 18.688C55.0137 18.816 55.003 18.944 55.003 19.072ZM66.1145 24.448C63.6398 24.448 61.8585 23.8933 60.7705 22.784C59.9598 21.9733 59.5545 20.8853 59.5545 19.52C59.5545 19.072 59.5972 18.592 59.6825 18.08L61.8585 5.696L67.7145 3.264L66.7865 8.608H75.6185L74.8185 13.12H65.9865L65.3465 16.736C65.2612 17.1413 65.2185 17.504 65.2185 17.824C65.2185 19.168 65.8585 19.84 67.1385 19.84C67.8212 19.84 68.3865 19.552 68.8345 18.976C69.3038 18.4 69.6238 17.632 69.7945 16.672H75.1065C74.2105 21.856 71.2132 24.448 66.1145 24.448ZM83.293 24.448C78.8557 24.448 76.637 22.912 76.637 19.84C76.637 19.4133 76.6797 18.9547 76.765 18.464L77.437 14.496C77.7997 12.448 78.7383 10.88 80.253 9.792C81.789 8.68267 83.8157 8.128 86.333 8.128C90.621 8.128 92.765 9.74933 92.765 12.992C92.765 13.4613 92.7223 13.9733 92.637 14.528L92.253 16.8H82.493L82.365 17.536C82.3223 17.792 82.301 18.0267 82.301 18.24C82.301 19.4133 82.9943 20 84.381 20C84.893 20 85.3303 19.84 85.693 19.52C86.0557 19.2 86.269 18.8267 86.333 18.4L91.645 18.464C90.941 22.4533 88.157 24.448 83.293 24.448ZM87.133 14.848C87.2183 14.4853 87.261 14.1547 87.261 13.856C87.261 13.536 87.1223 13.216 86.845 12.896C86.5677 12.576 86.1197 12.416 85.501 12.416C84.9037 12.416 84.349 12.6187 83.837 13.024C83.3463 13.4293 83.005 14.0373 82.813 14.848H87.133ZM108.981 24H94.3893L98.4533 0.959999H104.213L101.045 19.008H109.877L108.981 24ZM121.21 8.16C123.514 8.16 125.252 8.66133 126.426 9.664C127.343 10.4533 127.802 11.552 127.802 12.96C127.802 13.4293 127.748 13.9413 127.642 14.496L126.97 18.24C126.564 20.5013 125.615 22.1013 124.122 23.04C122.65 23.9787 120.676 24.448 118.202 24.448C115.727 24.448 113.914 23.9787 112.762 23.04C111.908 22.336 111.482 21.28 111.482 19.872C111.482 19.3813 111.535 18.8373 111.642 18.24L112.314 14.496C113.06 10.272 116.026 8.16 121.21 8.16ZM122.074 15.136C122.116 14.9227 122.138 14.656 122.138 14.336C122.138 13.9947 121.999 13.6213 121.722 13.216C121.444 12.8107 120.954 12.608 120.25 12.608C119.567 12.608 118.991 12.8427 118.522 13.312C118.052 13.76 117.754 14.368 117.626 15.136L117.21 17.536C117.167 17.7493 117.146 18.0267 117.146 18.368C117.146 18.688 117.284 19.04 117.562 19.424C117.839 19.808 118.319 20 119.002 20C119.706 20 120.292 19.7653 120.762 19.296C121.231 18.8053 121.53 18.2187 121.658 17.536L122.074 15.136ZM143.784 24.512C143.315 27.2213 142.237 29.3653 140.552 30.944C138.888 32.5227 136.979 33.312 134.824 33.312C132.669 33.312 131.112 32.9173 130.152 32.128C129.213 31.3387 128.744 30.304 128.744 29.024C128.744 27.1467 129.939 25.5147 132.328 24.128C130.515 23.552 129.608 22.176 129.608 20C129.608 19.4667 129.661 18.88 129.768 18.24L130.408 14.496C130.749 12.576 131.539 11.0507 132.776 9.92C134.013 8.768 135.613 8.192 137.576 8.192C139.56 8.192 140.915 8.672 141.64 9.632L141.832 8.608H146.6L143.784 24.512ZM135.336 17.536C135.293 17.728 135.272 17.9947 135.272 18.336C135.272 18.6773 135.432 19.0187 135.752 19.36C136.072 19.68 136.605 19.84 137.352 19.84C138.12 19.84 138.781 19.5413 139.336 18.944L140.296 13.568C139.997 13.0347 139.432 12.768 138.6 12.768C137.768 12.768 137.117 12.9813 136.648 13.408C136.179 13.8347 135.88 14.4107 135.752 15.136L135.336 17.536ZM135.56 28.736C136.947 28.736 137.853 27.4773 138.28 24.96L138.6 23.104C135.635 24.4907 134.152 25.888 134.152 27.296C134.152 27.7227 134.269 28.064 134.504 28.32C134.76 28.5973 135.112 28.736 135.56 28.736Z" fill="#654300"/>
</svg>
