<svg width="128" height="128" viewBox="0 0 134 138" fill="none" xmlns="http://www.w3.org/2000/svg">
<path d="M5.09778 103.338V34.283C5.09797 33.4994 5.32935 32.7326 5.76391 32.0755C6.19848 31.4183 6.8176 30.899 7.54635 30.5803L65.3218 5.35037C65.85 5.11937 66.4218 5 67 5C67.5782 5 68.15 5.11937 68.6782 5.35037L126.454 30.5803C127.182 30.899 127.802 31.4183 128.236 32.0755C128.671 32.7326 128.902 33.4994 128.902 34.283V103.338C128.902 104.121 128.671 104.888 128.236 105.545C127.802 106.202 127.182 106.722 126.454 107.04L68.6782 132.27C68.15 132.501 67.5782 132.621 67 132.621C66.4218 132.621 65.85 132.501 65.3218 132.27L7.54635 107.04C6.8176 106.722 6.19848 106.202 5.76391 105.545C5.32935 104.888 5.09797 104.121 5.09778 103.338Z" fill="#FFA800" stroke="white" stroke-width="9" stroke-linecap="round" stroke-linejoin="round"/>
<path d="M3 36.2762L64.9022 63.3035L69.0978 54.0466L7.19559 27.0194L3 36.2762ZM72.1585 133V58.6751H61.8415V133H72.1585ZM69.0978 63.3035L131 36.2762L126.804 27.0194L64.9022 54.0466L69.0978 63.3035Z" fill="white"/>
<path d="M36.05 18.1343L95.5037 44.0939C96.2324 44.4126 96.8516 44.9319 97.2861 45.5891C97.7207 46.2462 97.9521 47.013 97.9523 47.7967V72.1887" stroke="white" stroke-width="9" stroke-linecap="round" stroke-linejoin="round"/>
</svg>
