<svg width="440" height="98" viewBox="0 0 440 98" fill="none" xmlns="http://www.w3.org/2000/svg">
<path d="M41.856 0C49.152 0 54.336 1.6 57.408 4.8C59.712 7.232 60.864 10.304 60.864 14.016C60.864 15.296 60.736 16.64 60.48 18.048L59.136 25.536C58.368 29.696 57.024 33.056 55.104 35.616C53.248 38.176 51.168 40 48.864 41.088L57.6 69.12H38.208L30.144 43.296H24.192L20.256 69.12H1.82398L14.016 0H41.856ZM35.808 14.976H28.608L26.112 31.68H32.832C36.224 31.68 38.656 30.88 40.128 29.28C41.6 27.616 42.336 25.44 42.336 22.752C42.336 17.568 40.16 14.976 35.808 14.976Z" fill="#654300"/>
<path d="M93.2535 21.6C100.165 21.6 105.381 23.104 108.901 26.112C111.653 28.48 113.029 31.776 113.029 36C113.029 37.408 112.869 38.944 112.549 40.608L110.533 51.84C109.317 58.624 106.469 63.424 101.989 66.24C97.5735 69.056 91.6535 70.464 84.2295 70.464C76.8055 70.464 71.3655 69.056 67.9095 66.24C65.3495 64.128 64.0695 60.96 64.0695 56.736C64.0695 55.264 64.2295 53.632 64.5495 51.84L66.5655 40.608C68.8055 27.936 77.7015 21.6 93.2535 21.6ZM95.8455 42.528C95.9735 41.888 96.0375 41.088 96.0375 40.128C96.0375 39.104 95.6215 37.984 94.7895 36.768C93.9575 35.552 92.4855 34.944 90.3735 34.944C88.3255 34.944 86.5975 35.648 85.1895 37.056C83.7815 38.4 82.8855 40.224 82.5015 42.528L81.2535 49.728C81.1255 50.368 81.0615 51.2 81.0615 52.224C81.0615 53.184 81.4775 54.24 82.3095 55.392C83.1415 56.544 84.5815 57.12 86.6295 57.12C88.7415 57.12 90.5015 56.416 91.9095 55.008C93.3175 53.536 94.2135 51.776 94.5975 49.728L95.8455 42.528Z" fill="#654300"/>
<path d="M165.009 54.336C165.009 56 165.841 56.832 167.505 56.832C169.233 56.832 170.673 56.512 171.825 55.872L171.345 66.72C168.273 69.216 164.817 70.464 160.977 70.464C153.745 70.464 149.809 67.68 149.169 62.112C145.329 67.68 140.145 70.464 133.617 70.464C127.153 70.464 122.961 68.992 121.041 66.048C119.761 64.192 119.121 62.08 119.121 59.712C119.121 57.344 119.313 55.168 119.697 53.184L125.073 22.944H141.393L136.881 48.48C136.689 49.632 136.593 50.784 136.593 51.936C136.593 55.008 138.321 56.544 141.777 56.544C144.657 56.544 146.961 55.552 148.689 53.568L154.161 22.944H170.481L165.105 53.184C165.041 53.568 165.009 53.952 165.009 54.336Z" fill="#654300"/>
<path d="M198.343 70.464C190.919 70.464 185.575 68.8 182.311 65.472C179.879 63.04 178.663 59.776 178.663 55.68C178.663 54.336 178.791 52.896 179.047 51.36L185.575 14.208L203.143 6.912L200.359 22.944H226.855L224.455 36.48H197.959L196.039 47.328C195.783 48.544 195.655 49.632 195.655 50.592C195.655 54.624 197.575 56.64 201.415 56.64C203.463 56.64 205.159 55.776 206.503 54.048C207.911 52.32 208.871 50.016 209.383 47.136H225.319C222.631 62.688 213.639 70.464 198.343 70.464Z" fill="#654300"/>
<path d="M249.879 70.464C236.567 70.464 229.911 65.856 229.911 56.64C229.911 55.36 230.039 53.984 230.295 52.512L232.311 40.608C233.399 34.464 236.215 29.76 240.759 26.496C245.367 23.168 251.447 21.504 258.999 21.504C271.863 21.504 278.295 26.368 278.295 36.096C278.295 37.504 278.167 39.04 277.911 40.704L276.759 47.52H247.479L247.095 49.728C246.967 50.496 246.903 51.2 246.903 51.84C246.903 55.36 248.983 57.12 253.143 57.12C254.679 57.12 255.991 56.64 257.079 55.68C258.167 54.72 258.807 53.6 258.999 52.32L274.935 52.512C272.823 64.48 264.471 70.464 249.879 70.464ZM261.399 41.664C261.655 40.576 261.783 39.584 261.783 38.688C261.783 37.728 261.367 36.768 260.535 35.808C259.703 34.848 258.359 34.368 256.503 34.368C254.711 34.368 253.047 34.976 251.511 36.192C250.039 37.408 249.015 39.232 248.439 41.664H261.399Z" fill="#654300"/>
<path d="M326.944 69.12H283.168L295.36 0H312.64L303.136 54.144H329.632L326.944 69.12Z" fill="#654300"/>
<path d="M363.628 21.6C370.54 21.6 375.757 23.104 379.276 26.112C382.029 28.48 383.404 31.776 383.404 36C383.404 37.408 383.244 38.944 382.924 40.608L380.908 51.84C379.692 58.624 376.844 63.424 372.364 66.24C367.948 69.056 362.029 70.464 354.604 70.464C347.18 70.464 341.74 69.056 338.284 66.24C335.724 64.128 334.444 60.96 334.444 56.736C334.444 55.264 334.604 53.632 334.924 51.84L336.94 40.608C339.18 27.936 348.076 21.6 363.628 21.6ZM366.22 42.528C366.348 41.888 366.412 41.088 366.412 40.128C366.412 39.104 365.996 37.984 365.164 36.768C364.332 35.552 362.86 34.944 360.748 34.944C358.7 34.944 356.972 35.648 355.564 37.056C354.156 38.4 353.26 40.224 352.876 42.528L351.628 49.728C351.5 50.368 351.436 51.2 351.436 52.224C351.436 53.184 351.852 54.24 352.684 55.392C353.516 56.544 354.956 57.12 357.004 57.12C359.116 57.12 360.876 56.416 362.284 55.008C363.692 53.536 364.588 51.776 364.972 49.728L366.22 42.528Z" fill="#654300"/>
<path d="M431.352 70.656C429.944 78.784 426.712 85.216 421.656 89.952C416.664 94.688 410.936 97.056 404.472 97.056C398.008 97.056 393.336 95.872 390.456 93.504C387.64 91.136 386.232 88.032 386.232 84.192C386.232 78.56 389.816 73.664 396.984 69.504C391.544 67.776 388.824 63.648 388.824 57.12C388.824 55.52 388.984 53.76 389.304 51.84L391.224 40.608C392.248 34.848 394.616 30.272 398.328 26.88C402.04 23.424 406.84 21.696 412.728 21.696C418.68 21.696 422.744 23.136 424.92 26.016L425.496 22.944H439.8L431.352 70.656ZM406.008 49.728C405.88 50.304 405.816 51.104 405.816 52.128C405.816 53.152 406.296 54.176 407.256 55.2C408.216 56.16 409.816 56.64 412.056 56.64C414.36 56.64 416.344 55.744 418.008 53.952L420.888 37.824C419.992 36.224 418.296 35.424 415.8 35.424C413.304 35.424 411.352 36.064 409.944 37.344C408.536 38.624 407.64 40.352 407.256 42.528L406.008 49.728ZM406.68 83.328C410.84 83.328 413.56 79.552 414.84 72L415.8 66.432C406.904 70.592 402.456 74.784 402.456 79.008C402.456 80.288 402.808 81.312 403.512 82.08C404.28 82.912 405.336 83.328 406.68 83.328Z" fill="#654300"/>
<path d="M5.66998 91.414C3.68198 91.414 2.30998 90.952 1.55398 90.028C1.03598 89.384 0.776978 88.502 0.776978 87.382C0.776978 86.864 0.832978 86.297 0.944978 85.681L1.67998 81.481C2.33798 77.729 4.63398 75.853 8.56798 75.853C10.192 75.853 11.424 76.203 12.264 76.903C13.104 77.589 13.524 78.534 13.524 79.738C13.524 80.228 13.454 80.725 13.314 81.229C13.188 81.733 13.062 82.111 12.936 82.363L12.726 82.741H9.00898C9.37298 82.237 9.55498 81.656 9.55498 80.998C9.55498 79.738 9.02998 79.108 7.97998 79.108C6.56598 79.108 5.71898 79.927 5.43898 81.565L4.72498 85.597C4.65498 85.975 4.61998 86.346 4.61998 86.71C4.61998 87.676 5.18698 88.159 6.32098 88.159C7.46898 88.159 8.20398 87.585 8.52598 86.437H6.80398L7.22398 84.106H12.789L12.453 85.912L12.348 86.521C11.76 89.783 9.53398 91.414 5.66998 91.414Z" fill="#654300"/>
<path d="M18.3417 91.414C15.4297 91.414 13.9737 90.406 13.9737 88.39C13.9737 88.11 14.0017 87.809 14.0577 87.487L14.4987 84.883C14.7367 83.539 15.3527 82.51 16.3467 81.796C17.3547 81.068 18.6847 80.704 20.3367 80.704C23.1507 80.704 24.5577 81.768 24.5577 83.896C24.5577 84.204 24.5297 84.54 24.4737 84.904L24.2217 86.395H17.8167L17.7327 86.878C17.7047 87.046 17.6907 87.2 17.6907 87.34C17.6907 88.11 18.1457 88.495 19.0557 88.495C19.3917 88.495 19.6787 88.39 19.9167 88.18C20.1547 87.97 20.2947 87.725 20.3367 87.445L23.8227 87.487C23.3607 90.105 21.5337 91.414 18.3417 91.414ZM20.8617 85.114C20.9177 84.876 20.9457 84.659 20.9457 84.463C20.9457 84.253 20.8547 84.043 20.6727 83.833C20.4907 83.623 20.1967 83.518 19.7907 83.518C19.3987 83.518 19.0347 83.651 18.6987 83.917C18.3767 84.183 18.1527 84.582 18.0267 85.114H20.8617Z" fill="#654300"/>
<path d="M35.8716 83.161C35.8716 83.637 35.7876 84.099 35.6196 84.547C35.4656 84.995 35.3116 85.324 35.1576 85.534L34.9266 85.828H31.7556C32.1056 85.506 32.2806 85.107 32.2806 84.631C32.2806 84.379 32.1966 84.176 32.0286 84.022C31.8746 83.854 31.6576 83.77 31.3776 83.77C30.9016 83.77 30.4886 84.008 30.1386 84.484L28.9626 91.12H25.3926L27.1776 81.019H30.4956L30.2436 82.426C31.0416 81.292 32.0076 80.725 33.1416 80.725C34.0516 80.725 34.7306 80.942 35.1786 81.376C35.6406 81.81 35.8716 82.405 35.8716 83.161Z" fill="#654300"/>
<path d="M40.7157 91.414C37.8037 91.414 36.3477 90.406 36.3477 88.39C36.3477 88.11 36.3757 87.809 36.4317 87.487L36.8727 84.883C37.1107 83.539 37.7267 82.51 38.7207 81.796C39.7287 81.068 41.0587 80.704 42.7107 80.704C45.5247 80.704 46.9317 81.768 46.9317 83.896C46.9317 84.204 46.9037 84.54 46.8477 84.904L46.5957 86.395H40.1907L40.1067 86.878C40.0787 87.046 40.0647 87.2 40.0647 87.34C40.0647 88.11 40.5197 88.495 41.4297 88.495C41.7657 88.495 42.0527 88.39 42.2907 88.18C42.5287 87.97 42.6687 87.725 42.7107 87.445L46.1967 87.487C45.7347 90.105 43.9077 91.414 40.7157 91.414ZM43.2357 85.114C43.2917 84.876 43.3197 84.659 43.3197 84.463C43.3197 84.253 43.2287 84.043 43.0467 83.833C42.8647 83.623 42.5707 83.518 42.1647 83.518C41.7727 83.518 41.4087 83.651 41.0727 83.917C40.7507 84.183 40.5267 84.582 40.4007 85.114H43.2357Z" fill="#654300"/>
<path d="M54.8226 84.673C54.8226 84.071 54.5286 83.77 53.9406 83.77C53.3666 83.77 52.8906 83.987 52.5126 84.421L51.3366 91.12H47.7666L49.5516 81.019H52.8696L52.6386 82.258C53.4646 81.236 54.5076 80.725 55.7676 80.725C57.0276 80.725 57.8466 81.033 58.2246 81.649C58.4626 82.041 58.5816 82.489 58.5816 82.993C58.5816 83.497 58.5466 83.966 58.4766 84.4L57.9096 87.634C57.8956 87.718 57.8886 87.795 57.8886 87.865C57.8886 88.243 58.0986 88.432 58.5186 88.432C58.8406 88.432 59.1276 88.362 59.3796 88.222L59.2746 90.595C58.6166 91.141 57.8676 91.414 57.0276 91.414C55.1236 91.414 54.1716 90.616 54.1716 89.02C54.1716 88.74 54.1996 88.439 54.2556 88.117L54.7596 85.324C54.8016 85.072 54.8226 84.855 54.8226 84.673Z" fill="#654300"/>
<path d="M64.8534 91.414C61.9414 91.414 60.4854 90.406 60.4854 88.39C60.4854 88.11 60.5134 87.809 60.5694 87.487L61.0104 84.883C61.2344 83.539 61.8434 82.51 62.8374 81.796C63.8454 81.082 65.1194 80.718 66.6594 80.704C69.6414 80.704 71.1324 81.74 71.1324 83.812C71.1324 84.26 71.0764 84.666 70.9644 85.03C70.8664 85.38 70.7614 85.618 70.6494 85.744L70.4814 85.954H66.9114C67.2614 85.646 67.4364 85.282 67.4364 84.862C67.4364 84.106 67.0584 83.728 66.3024 83.728C65.8544 83.728 65.4694 83.861 65.1474 84.127C64.8254 84.393 64.6154 84.799 64.5174 85.345L64.2444 86.878C64.2164 87.018 64.2024 87.151 64.2024 87.277C64.2024 88.019 64.6644 88.39 65.5884 88.39C65.8964 88.39 66.1694 88.292 66.4074 88.096C66.6594 87.9 66.8064 87.683 66.8484 87.445L70.3344 87.487C69.8724 90.105 68.0454 91.414 64.8534 91.414Z" fill="#654300"/>
<path d="M76.5883 88.432C76.9103 88.432 77.1973 88.362 77.4493 88.222L77.3443 90.595C76.6863 91.141 75.9373 91.414 75.0973 91.414C73.8233 91.414 72.9973 91.12 72.6193 90.532C72.3673 90.14 72.2413 89.727 72.2413 89.293C72.2413 88.845 72.2693 88.453 72.3253 88.117L73.5853 81.019H77.1553L75.9793 87.634C75.9653 87.718 75.9583 87.795 75.9583 87.865C75.9583 88.243 76.1683 88.432 76.5883 88.432ZM74.0053 77.596C74.0053 76.7 74.2013 76.049 74.5933 75.643C74.9993 75.223 75.6223 75.013 76.4623 75.013C77.6383 75.013 78.2263 75.531 78.2263 76.567C78.2263 77.449 78.0233 78.093 77.6173 78.499C77.2253 78.905 76.6023 79.108 75.7483 79.108C74.5863 79.108 74.0053 78.604 74.0053 77.596Z" fill="#654300"/>
<path d="M88.5893 87.886C88.5893 88.25 88.7713 88.432 89.1353 88.432C89.5133 88.432 89.8283 88.362 90.0803 88.222L89.9753 90.595C89.3033 91.141 88.5473 91.414 87.7073 91.414C86.1673 91.414 85.3133 90.854 85.1453 89.734C84.4453 90.854 83.4163 91.414 82.0583 91.414C79.7623 91.414 78.6143 90.427 78.6143 88.453C78.6143 88.117 78.6493 87.746 78.7193 87.34L79.1603 84.883C79.3843 83.623 79.8953 82.622 80.6933 81.88C81.5053 81.124 82.5553 80.746 83.8433 80.746C85.1453 80.746 86.0273 81.047 86.4893 81.649L86.5943 81.019H89.7863L88.6103 87.634C88.5963 87.718 88.5893 87.802 88.5893 87.886ZM82.3733 86.878C82.3453 87.004 82.3313 87.179 82.3313 87.403C82.3313 87.627 82.4363 87.851 82.6463 88.075C82.8563 88.285 83.2063 88.39 83.6963 88.39C84.2003 88.39 84.6343 88.194 84.9983 87.802L85.6283 84.274C85.4743 83.924 85.1103 83.749 84.5363 83.749C83.4583 83.749 82.8283 84.267 82.6463 85.303L82.3733 86.878Z" fill="#654300"/>
<path d="M108.761 88.432C109.083 88.432 109.37 88.362 109.622 88.222L109.517 90.595C108.859 91.141 108.11 91.414 107.27 91.414C105.366 91.414 104.414 90.616 104.414 89.02C104.414 88.74 104.442 88.439 104.498 88.117L104.939 85.534C104.981 85.282 105.002 85.03 105.002 84.778C105.002 84.106 104.631 83.77 103.889 83.77C103.161 83.77 102.587 84.057 102.167 84.631L101.033 91.12H97.4631L98.4501 85.534C98.4921 85.282 98.5131 85.03 98.5131 84.778C98.5131 84.106 98.1351 83.77 97.3791 83.77C96.7771 83.77 96.2591 84.001 95.8251 84.463L94.6491 91.12H91.0791L92.8641 81.019H96.1821L95.9511 82.279C96.7911 81.243 97.8551 80.725 99.1431 80.725C100.963 80.725 101.999 81.327 102.251 82.531C103.091 81.327 104.211 80.725 105.611 80.725C107.025 80.725 107.942 81.04 108.362 81.67C108.642 82.104 108.782 82.58 108.782 83.098C108.782 83.616 108.747 84.085 108.677 84.505L108.152 87.634C108.138 87.718 108.131 87.795 108.131 87.865C108.131 88.243 108.341 88.432 108.761 88.432Z" fill="#654300"/>
<path d="M115.098 91.414C112.186 91.414 110.73 90.406 110.73 88.39C110.73 88.11 110.758 87.809 110.814 87.487L111.255 84.883C111.493 83.539 112.109 82.51 113.103 81.796C114.111 81.068 115.441 80.704 117.093 80.704C119.907 80.704 121.314 81.768 121.314 83.896C121.314 84.204 121.286 84.54 121.23 84.904L120.978 86.395H114.573L114.489 86.878C114.461 87.046 114.447 87.2 114.447 87.34C114.447 88.11 114.902 88.495 115.812 88.495C116.148 88.495 116.435 88.39 116.673 88.18C116.911 87.97 117.051 87.725 117.093 87.445L120.579 87.487C120.117 90.105 118.29 91.414 115.098 91.414ZM117.618 85.114C117.674 84.876 117.702 84.659 117.702 84.463C117.702 84.253 117.611 84.043 117.429 83.833C117.247 83.623 116.953 83.518 116.547 83.518C116.155 83.518 115.791 83.651 115.455 83.917C115.133 84.183 114.909 84.582 114.783 85.114H117.618Z" fill="#654300"/>
<path d="M129.204 84.673C129.204 84.071 128.91 83.77 128.322 83.77C127.748 83.77 127.272 83.987 126.894 84.421L125.718 91.12H122.148L123.933 81.019H127.251L127.02 82.258C127.846 81.236 128.889 80.725 130.149 80.725C131.409 80.725 132.228 81.033 132.606 81.649C132.844 82.041 132.963 82.489 132.963 82.993C132.963 83.497 132.928 83.966 132.858 84.4L132.291 87.634C132.277 87.718 132.27 87.795 132.27 87.865C132.27 88.243 132.48 88.432 132.9 88.432C133.222 88.432 133.509 88.362 133.761 88.222L133.656 90.595C132.998 91.141 132.249 91.414 131.409 91.414C129.505 91.414 128.553 90.616 128.553 89.02C128.553 88.74 128.581 88.439 128.637 88.117L129.141 85.324C129.183 85.072 129.204 84.855 129.204 84.673Z" fill="#654300"/>
<path d="M139.487 91.414C137.863 91.414 136.694 91.05 135.98 90.322C135.448 89.79 135.182 89.076 135.182 88.18C135.182 87.886 135.21 87.571 135.266 87.235L136.694 79.108L140.537 77.512L139.928 81.019H145.724L145.199 83.98H139.403L138.983 86.353C138.927 86.619 138.899 86.857 138.899 87.067C138.899 87.949 139.319 88.39 140.159 88.39C140.607 88.39 140.978 88.201 141.272 87.823C141.58 87.445 141.79 86.941 141.902 86.311H145.388C144.8 89.713 142.833 91.414 139.487 91.414Z" fill="#654300"/>
<path d="M152.798 80.725C154.31 80.725 155.451 81.054 156.221 81.712C156.823 82.23 157.124 82.951 157.124 83.875C157.124 84.183 157.089 84.519 157.019 84.883L156.578 87.34C156.312 88.824 155.689 89.874 154.709 90.49C153.743 91.106 152.448 91.414 150.824 91.414C149.2 91.414 148.01 91.106 147.254 90.49C146.694 90.028 146.414 89.335 146.414 88.411C146.414 88.089 146.449 87.732 146.519 87.34L146.96 84.883C147.45 82.111 149.396 80.725 152.798 80.725ZM153.365 85.303C153.393 85.163 153.407 84.988 153.407 84.778C153.407 84.554 153.316 84.309 153.134 84.043C152.952 83.777 152.63 83.644 152.168 83.644C151.72 83.644 151.342 83.798 151.034 84.106C150.726 84.4 150.53 84.799 150.446 85.303L150.173 86.878C150.145 87.018 150.131 87.2 150.131 87.424C150.131 87.634 150.222 87.865 150.404 88.117C150.586 88.369 150.901 88.495 151.349 88.495C151.811 88.495 152.196 88.341 152.504 88.033C152.812 87.711 153.008 87.326 153.092 86.878L153.365 85.303Z" fill="#654300"/>
<path d="M173.266 87.886C173.266 88.25 173.448 88.432 173.812 88.432C174.19 88.432 174.505 88.362 174.757 88.222L174.652 90.595C173.98 91.141 173.224 91.414 172.384 91.414C170.844 91.414 169.99 90.854 169.822 89.734C169.122 90.854 168.093 91.414 166.735 91.414C164.439 91.414 163.291 90.427 163.291 88.453C163.291 88.117 163.326 87.746 163.396 87.34L163.837 84.883C164.061 83.623 164.572 82.622 165.37 81.88C166.182 81.124 167.302 80.746 168.73 80.746C169.612 80.746 170.312 80.935 170.83 81.313L171.901 75.181H175.492L173.287 87.634C173.273 87.718 173.266 87.802 173.266 87.886ZM167.05 86.878C167.022 87.004 167.008 87.179 167.008 87.403C167.008 87.627 167.113 87.851 167.323 88.075C167.533 88.285 167.883 88.39 168.373 88.39C168.877 88.39 169.311 88.194 169.675 87.802L170.305 84.274C170.151 83.924 169.787 83.749 169.213 83.749C168.135 83.749 167.505 84.267 167.323 85.303L167.05 86.878Z" fill="#654300"/>
<path d="M180.702 91.414C177.79 91.414 176.334 90.406 176.334 88.39C176.334 88.11 176.362 87.809 176.418 87.487L176.859 84.883C177.097 83.539 177.713 82.51 178.707 81.796C179.715 81.068 181.045 80.704 182.697 80.704C185.511 80.704 186.918 81.768 186.918 83.896C186.918 84.204 186.89 84.54 186.834 84.904L186.582 86.395H180.177L180.093 86.878C180.065 87.046 180.051 87.2 180.051 87.34C180.051 88.11 180.506 88.495 181.416 88.495C181.752 88.495 182.039 88.39 182.277 88.18C182.515 87.97 182.655 87.725 182.697 87.445L186.183 87.487C185.721 90.105 183.894 91.414 180.702 91.414ZM183.222 85.114C183.278 84.876 183.306 84.659 183.306 84.463C183.306 84.253 183.215 84.043 183.033 83.833C182.851 83.623 182.557 83.518 182.151 83.518C181.759 83.518 181.395 83.651 181.059 83.917C180.737 84.183 180.513 84.582 180.387 85.114H183.222Z" fill="#654300"/>
<path d="M203.277 83.161C203.277 83.637 203.193 84.099 203.025 84.547C202.871 84.995 202.717 85.324 202.563 85.534L202.332 85.828H199.161C199.511 85.506 199.686 85.107 199.686 84.631C199.686 84.379 199.602 84.176 199.434 84.022C199.28 83.854 199.063 83.77 198.783 83.77C198.307 83.77 197.894 84.008 197.544 84.484L196.368 91.12H192.798L194.583 81.019H197.901L197.649 82.426C198.447 81.292 199.413 80.725 200.547 80.725C201.457 80.725 202.136 80.942 202.584 81.376C203.046 81.81 203.277 82.405 203.277 83.161Z" fill="#654300"/>
<path d="M210.158 80.725C211.67 80.725 212.811 81.054 213.581 81.712C214.183 82.23 214.484 82.951 214.484 83.875C214.484 84.183 214.449 84.519 214.379 84.883L213.938 87.34C213.672 88.824 213.049 89.874 212.069 90.49C211.103 91.106 209.808 91.414 208.184 91.414C206.56 91.414 205.37 91.106 204.614 90.49C204.054 90.028 203.774 89.335 203.774 88.411C203.774 88.089 203.809 87.732 203.879 87.34L204.32 84.883C204.81 82.111 206.756 80.725 210.158 80.725ZM210.725 85.303C210.753 85.163 210.767 84.988 210.767 84.778C210.767 84.554 210.676 84.309 210.494 84.043C210.312 83.777 209.99 83.644 209.528 83.644C209.08 83.644 208.702 83.798 208.394 84.106C208.086 84.4 207.89 84.799 207.806 85.303L207.533 86.878C207.505 87.018 207.491 87.2 207.491 87.424C207.491 87.634 207.582 87.865 207.764 88.117C207.946 88.369 208.261 88.495 208.709 88.495C209.171 88.495 209.556 88.341 209.864 88.033C210.172 87.711 210.368 87.326 210.452 86.878L210.725 85.303Z" fill="#654300"/>
<path d="M220.226 91.414C218.602 91.414 217.433 91.05 216.719 90.322C216.187 89.79 215.921 89.076 215.921 88.18C215.921 87.886 215.949 87.571 216.005 87.235L217.433 79.108L221.276 77.512L220.667 81.019H226.463L225.938 83.98H220.142L219.722 86.353C219.666 86.619 219.638 86.857 219.638 87.067C219.638 87.949 220.058 88.39 220.898 88.39C221.346 88.39 221.717 88.201 222.011 87.823C222.319 87.445 222.529 86.941 222.641 86.311H226.127C225.539 89.713 223.572 91.414 220.226 91.414Z" fill="#654300"/>
<path d="M237.107 87.886C237.107 88.25 237.289 88.432 237.653 88.432C238.031 88.432 238.346 88.362 238.598 88.222L238.493 90.595C237.821 91.141 237.065 91.414 236.225 91.414C234.685 91.414 233.831 90.854 233.663 89.734C232.963 90.854 231.934 91.414 230.576 91.414C228.28 91.414 227.132 90.427 227.132 88.453C227.132 88.117 227.167 87.746 227.237 87.34L227.678 84.883C227.902 83.623 228.413 82.622 229.211 81.88C230.023 81.124 231.073 80.746 232.361 80.746C233.663 80.746 234.545 81.047 235.007 81.649L235.112 81.019H238.304L237.128 87.634C237.114 87.718 237.107 87.802 237.107 87.886ZM230.891 86.878C230.863 87.004 230.849 87.179 230.849 87.403C230.849 87.627 230.954 87.851 231.164 88.075C231.374 88.285 231.724 88.39 232.214 88.39C232.718 88.39 233.152 88.194 233.516 87.802L234.146 84.274C233.992 83.924 233.628 83.749 233.054 83.749C231.976 83.749 231.346 84.267 231.164 85.303L230.891 86.878Z" fill="#654300"/>
<path d="M250.391 83.203C250.391 83.665 250.251 84.092 249.971 84.484H246.527C246.639 84.4 246.695 84.26 246.695 84.064C246.695 83.868 246.583 83.714 246.359 83.602C246.135 83.476 245.848 83.413 245.498 83.413C244.448 83.413 243.923 83.735 243.923 84.379C243.923 84.631 244.119 84.813 244.511 84.925C244.903 85.037 245.379 85.128 245.939 85.198C246.499 85.268 247.059 85.373 247.619 85.513C248.179 85.639 248.655 85.898 249.047 86.29C249.439 86.682 249.635 87.207 249.635 87.865C249.635 89.027 249.166 89.909 248.228 90.511C247.304 91.113 245.953 91.414 244.175 91.414C242.397 91.414 241.151 91.127 240.437 90.553C239.877 90.105 239.597 89.489 239.597 88.705C239.597 88.481 239.618 88.25 239.66 88.012L243.167 87.97C243.139 88.166 243.251 88.341 243.503 88.495C243.769 88.635 244.154 88.705 244.658 88.705C245.162 88.705 245.526 88.656 245.75 88.558C245.974 88.446 246.086 88.243 246.086 87.949C246.086 87.753 245.89 87.62 245.498 87.55C245.106 87.466 244.623 87.396 244.049 87.34C243.489 87.284 242.922 87.193 242.348 87.067C241.788 86.941 241.312 86.675 240.92 86.269C240.528 85.863 240.332 85.331 240.332 84.673C240.332 83.399 240.822 82.419 241.802 81.733C242.796 81.047 244.224 80.704 246.086 80.704C248.956 80.704 250.391 81.537 250.391 83.203Z" fill="#654300"/>
<path d="M260.703 91.414C257.791 91.414 256.335 90.406 256.335 88.39C256.335 88.11 256.363 87.809 256.419 87.487L256.86 84.883C257.098 83.539 257.714 82.51 258.708 81.796C259.716 81.068 261.046 80.704 262.698 80.704C265.512 80.704 266.919 81.768 266.919 83.896C266.919 84.204 266.891 84.54 266.835 84.904L266.583 86.395H260.178L260.094 86.878C260.066 87.046 260.052 87.2 260.052 87.34C260.052 88.11 260.507 88.495 261.417 88.495C261.753 88.495 262.04 88.39 262.278 88.18C262.516 87.97 262.656 87.725 262.698 87.445L266.184 87.487C265.722 90.105 263.895 91.414 260.703 91.414ZM263.223 85.114C263.279 84.876 263.307 84.659 263.307 84.463C263.307 84.253 263.216 84.043 263.034 83.833C262.852 83.623 262.558 83.518 262.152 83.518C261.76 83.518 261.396 83.651 261.06 83.917C260.738 84.183 260.514 84.582 260.388 85.114H263.223Z" fill="#654300"/>
<path d="M277.335 91.414C274.423 91.414 272.967 90.406 272.967 88.39C272.967 88.11 272.995 87.809 273.051 87.487L273.492 84.883C273.73 83.539 274.346 82.51 275.34 81.796C276.348 81.068 277.678 80.704 279.33 80.704C282.144 80.704 283.551 81.768 283.551 83.896C283.551 84.204 283.523 84.54 283.467 84.904L283.215 86.395H276.81L276.726 86.878C276.698 87.046 276.684 87.2 276.684 87.34C276.684 88.11 277.139 88.495 278.049 88.495C278.385 88.495 278.672 88.39 278.91 88.18C279.148 87.97 279.288 87.725 279.33 87.445L282.816 87.487C282.354 90.105 280.527 91.414 277.335 91.414ZM279.855 85.114C279.911 84.876 279.939 84.659 279.939 84.463C279.939 84.253 279.848 84.043 279.666 83.833C279.484 83.623 279.19 83.518 278.784 83.518C278.392 83.518 278.028 83.651 277.692 83.917C277.37 84.183 277.146 84.582 277.02 85.114H279.855Z" fill="#654300"/>
<path d="M291.442 84.673C291.442 84.071 291.148 83.77 290.56 83.77C289.986 83.77 289.51 83.987 289.132 84.421L287.956 91.12H284.386L286.171 81.019H289.489L289.258 82.258C290.084 81.236 291.127 80.725 292.387 80.725C293.647 80.725 294.466 81.033 294.844 81.649C295.082 82.041 295.201 82.489 295.201 82.993C295.201 83.497 295.166 83.966 295.096 84.4L294.529 87.634C294.515 87.718 294.508 87.795 294.508 87.865C294.508 88.243 294.718 88.432 295.138 88.432C295.46 88.432 295.747 88.362 295.999 88.222L295.894 90.595C295.236 91.141 294.487 91.414 293.647 91.414C291.743 91.414 290.791 90.616 290.791 89.02C290.791 88.74 290.819 88.439 290.875 88.117L291.379 85.324C291.421 85.072 291.442 84.855 291.442 84.673Z" fill="#654300"/>
<path d="M301.725 91.414C300.101 91.414 298.932 91.05 298.218 90.322C297.686 89.79 297.42 89.076 297.42 88.18C297.42 87.886 297.448 87.571 297.504 87.235L298.932 79.108L302.775 77.512L302.166 81.019H307.962L307.437 83.98H301.641L301.221 86.353C301.165 86.619 301.137 86.857 301.137 87.067C301.137 87.949 301.557 88.39 302.397 88.39C302.845 88.39 303.216 88.201 303.51 87.823C303.818 87.445 304.028 86.941 304.14 86.311H307.626C307.038 89.713 305.071 91.414 301.725 91.414Z" fill="#654300"/>
<path d="M318.941 83.161C318.941 83.637 318.857 84.099 318.689 84.547C318.535 84.995 318.381 85.324 318.227 85.534L317.996 85.828H314.825C315.175 85.506 315.35 85.107 315.35 84.631C315.35 84.379 315.266 84.176 315.098 84.022C314.944 83.854 314.727 83.77 314.447 83.77C313.971 83.77 313.558 84.008 313.208 84.484L312.032 91.12H308.462L310.247 81.019H313.565L313.313 82.426C314.111 81.292 315.077 80.725 316.211 80.725C317.121 80.725 317.8 80.942 318.248 81.376C318.71 81.81 318.941 82.405 318.941 83.161Z" fill="#654300"/>
<path d="M323.785 91.414C320.873 91.414 319.417 90.406 319.417 88.39C319.417 88.11 319.445 87.809 319.501 87.487L319.942 84.883C320.18 83.539 320.796 82.51 321.79 81.796C322.798 81.068 324.128 80.704 325.78 80.704C328.594 80.704 330.001 81.768 330.001 83.896C330.001 84.204 329.973 84.54 329.917 84.904L329.665 86.395H323.26L323.176 86.878C323.148 87.046 323.134 87.2 323.134 87.34C323.134 88.11 323.589 88.495 324.499 88.495C324.835 88.495 325.122 88.39 325.36 88.18C325.598 87.97 325.738 87.725 325.78 87.445L329.266 87.487C328.804 90.105 326.977 91.414 323.785 91.414ZM326.305 85.114C326.361 84.876 326.389 84.659 326.389 84.463C326.389 84.253 326.298 84.043 326.116 83.833C325.934 83.623 325.64 83.518 325.234 83.518C324.842 83.518 324.478 83.651 324.142 83.917C323.82 84.183 323.596 84.582 323.47 85.114H326.305Z" fill="#654300"/>
<path d="M340.37 91.456C340.062 93.234 339.355 94.641 338.249 95.677C337.157 96.713 335.904 97.231 334.49 97.231C333.076 97.231 332.054 96.972 331.424 96.454C330.808 95.936 330.5 95.257 330.5 94.417C330.5 93.185 331.284 92.114 332.852 91.204C331.662 90.826 331.067 89.923 331.067 88.495C331.067 88.145 331.102 87.76 331.172 87.34L331.592 84.883C331.816 83.623 332.334 82.622 333.146 81.88C333.958 81.124 335.008 80.746 336.296 80.746C337.598 80.746 338.487 81.061 338.963 81.691L339.089 81.019H342.218L340.37 91.456ZM334.826 86.878C334.798 87.004 334.784 87.179 334.784 87.403C334.784 87.627 334.889 87.851 335.099 88.075C335.309 88.285 335.659 88.39 336.149 88.39C336.653 88.39 337.087 88.194 337.451 87.802L338.081 84.274C337.885 83.924 337.514 83.749 336.968 83.749C336.422 83.749 335.995 83.889 335.687 84.169C335.379 84.449 335.183 84.827 335.099 85.303L334.826 86.878ZM334.973 94.228C335.883 94.228 336.478 93.402 336.758 91.75L336.968 90.532C335.022 91.442 334.049 92.359 334.049 93.283C334.049 93.563 334.126 93.787 334.28 93.955C334.448 94.137 334.679 94.228 334.973 94.228Z" fill="#654300"/>
<path d="M352.668 87.886C352.668 88.25 352.85 88.432 353.214 88.432C353.592 88.432 353.907 88.362 354.159 88.222L354.054 90.595C353.382 91.141 352.626 91.414 351.786 91.414C350.246 91.414 349.392 90.854 349.224 89.734C348.524 90.854 347.495 91.414 346.137 91.414C343.841 91.414 342.693 90.427 342.693 88.453C342.693 88.117 342.728 87.746 342.798 87.34L343.239 84.883C343.463 83.623 343.974 82.622 344.772 81.88C345.584 81.124 346.634 80.746 347.922 80.746C349.224 80.746 350.106 81.047 350.568 81.649L350.673 81.019H353.865L352.689 87.634C352.675 87.718 352.668 87.802 352.668 87.886ZM346.452 86.878C346.424 87.004 346.41 87.179 346.41 87.403C346.41 87.627 346.515 87.851 346.725 88.075C346.935 88.285 347.285 88.39 347.775 88.39C348.279 88.39 348.713 88.194 349.077 87.802L349.707 84.274C349.553 83.924 349.189 83.749 348.615 83.749C347.537 83.749 346.907 84.267 346.725 85.303L346.452 86.878Z" fill="#654300"/>
<path d="M365.952 83.203C365.952 83.665 365.812 84.092 365.532 84.484H362.088C362.2 84.4 362.256 84.26 362.256 84.064C362.256 83.868 362.144 83.714 361.92 83.602C361.696 83.476 361.409 83.413 361.059 83.413C360.009 83.413 359.484 83.735 359.484 84.379C359.484 84.631 359.68 84.813 360.072 84.925C360.464 85.037 360.94 85.128 361.5 85.198C362.06 85.268 362.62 85.373 363.18 85.513C363.74 85.639 364.216 85.898 364.608 86.29C365 86.682 365.196 87.207 365.196 87.865C365.196 89.027 364.727 89.909 363.789 90.511C362.865 91.113 361.514 91.414 359.736 91.414C357.958 91.414 356.712 91.127 355.998 90.553C355.438 90.105 355.158 89.489 355.158 88.705C355.158 88.481 355.179 88.25 355.221 88.012L358.728 87.97C358.7 88.166 358.812 88.341 359.064 88.495C359.33 88.635 359.715 88.705 360.219 88.705C360.723 88.705 361.087 88.656 361.311 88.558C361.535 88.446 361.647 88.243 361.647 87.949C361.647 87.753 361.451 87.62 361.059 87.55C360.667 87.466 360.184 87.396 359.61 87.34C359.05 87.284 358.483 87.193 357.909 87.067C357.349 86.941 356.873 86.675 356.481 86.269C356.089 85.863 355.893 85.331 355.893 84.673C355.893 83.399 356.383 82.419 357.363 81.733C358.357 81.047 359.785 80.704 361.647 80.704C364.517 80.704 365.952 81.537 365.952 83.203Z" fill="#654300"/>
</svg>
