<svg width="40" height="40" viewBox="0 0 40 40" fill="none" xmlns="http://www.w3.org/2000/svg">
<g clip-path="url(#clip0_252_35)">
<path d="M20.0001 24.1739C22.367 24.1739 24.2858 22.3052 24.2858 20C24.2858 17.6948 22.367 15.8261 20.0001 15.8261C17.6331 15.8261 15.7144 17.6948 15.7144 20C15.7144 22.3052 17.6331 24.1739 20.0001 24.1739Z" fill="white"/>
<path d="M39.1419 23.8261L39.0999 23.793L36.2821 21.6409C36.1036 21.5034 35.9612 21.3266 35.8666 21.1251C35.7719 20.9236 35.7276 20.7031 35.7374 20.4817V19.4765C35.7285 19.2565 35.7733 19.0376 35.8681 18.8378C35.963 18.6379 36.1051 18.4629 36.283 18.327L39.0999 16.1739L39.1419 16.1409C39.5763 15.7884 39.8679 15.2969 39.9644 14.7543C40.0609 14.2117 39.9561 13.6534 39.6687 13.1791L35.8553 6.75304C35.8509 6.74698 35.847 6.74058 35.8437 6.73391C35.5548 6.26623 35.1067 5.91187 34.5775 5.73237C34.0482 5.55288 33.4711 5.55957 32.9464 5.7513L32.9151 5.76261L29.6026 7.06087C29.3936 7.1432 29.1674 7.17596 28.9428 7.15646C28.7182 7.13696 28.5015 7.06575 28.3107 6.9487C28.0178 6.76899 27.7202 6.59913 27.4178 6.43913C27.2218 6.33559 27.0535 6.18863 26.9264 6.01009C26.7994 5.83155 26.7173 5.62645 26.6866 5.4113L26.1875 1.9687L26.1768 1.90609C26.0681 1.37287 25.7743 0.892323 25.3447 0.545212C24.9152 0.1981 24.376 0.00557834 23.8178 0H16.1821C15.6161 0.00176394 15.0689 0.198014 14.6369 0.554177C14.2049 0.91034 13.9158 1.40356 13.8205 1.94696L13.8125 1.99565L13.3152 5.44522C13.2847 5.65974 13.2032 5.86437 13.0772 6.0428C12.9511 6.22124 12.7841 6.36857 12.5893 6.47304C12.286 6.63212 11.9883 6.80091 11.6964 6.97913C11.506 7.09547 11.2899 7.16613 11.0659 7.18533C10.8419 7.20453 10.6165 7.17171 10.4081 7.08957L7.09288 5.78522L7.06163 5.77304C6.53615 5.5811 5.95821 5.57466 5.42835 5.75483C4.8985 5.93499 4.45027 6.29037 4.16164 6.75913L4.15003 6.77826L0.331292 13.2087C0.0434627 13.6834 -0.0615903 14.2424 0.0349192 14.7856C0.131429 15.3289 0.423207 15.821 0.858077 16.1739L0.900041 16.207L3.71789 18.3591C3.89634 18.4966 4.03875 18.6734 4.13343 18.8749C4.22811 19.0764 4.27235 19.2969 4.26253 19.5183V20.5235C4.27147 20.7435 4.22669 20.9624 4.13185 21.1622C4.03701 21.3621 3.89483 21.5371 3.717 21.673L0.900041 23.8261L0.858077 23.8591C0.423637 24.2116 0.132096 24.7031 0.0355871 25.2457C-0.060922 25.7883 0.0438942 26.3466 0.331292 26.8209L4.14468 33.247C4.14907 33.253 4.15295 33.2594 4.15628 33.2661C4.44523 33.7338 4.89324 34.0881 5.4225 34.2676C5.95177 34.4471 6.52887 34.4404 7.0536 34.2487L7.08485 34.2374L10.3947 32.9391C10.6037 32.8568 10.8299 32.824 11.0545 32.8435C11.2791 32.863 11.4958 32.9343 11.6866 33.0513C11.9795 33.2316 12.2771 33.4015 12.5795 33.5609C12.7755 33.6644 12.9438 33.8114 13.0709 33.9899C13.1979 34.1684 13.28 34.3736 13.3107 34.5887L13.8071 38.0313L13.8179 38.0939C13.9267 38.628 14.2213 39.1092 14.652 39.4564C15.0826 39.8036 15.6231 39.9956 16.1821 40H23.8178C24.3839 39.9982 24.9311 39.802 25.3631 39.4458C25.7951 39.0897 26.0842 38.5964 26.1794 38.053L26.1875 38.0043L26.6848 34.5548C26.7158 34.3399 26.798 34.135 26.9248 33.9565C27.0516 33.778 27.2195 33.6309 27.4151 33.527C27.7205 33.367 28.0187 33.1974 28.308 33.0209C28.4985 32.9045 28.7146 32.8339 28.9386 32.8147C29.1625 32.7955 29.388 32.8283 29.5964 32.9104L32.9116 34.2104L32.9428 34.2226C33.4683 34.4149 34.0463 34.4215 34.5763 34.2413C35.1062 34.0611 35.5544 33.7055 35.8428 33.2365C35.8463 33.23 35.8502 33.2236 35.8544 33.2174L39.6678 26.7922C39.9561 26.3175 40.0616 25.7584 39.9652 25.2149C39.8689 24.6714 39.577 24.1791 39.1419 23.8261ZM27.1348 20.327C27.0698 21.6735 26.6044 22.9727 25.7953 24.0665C24.9862 25.1603 23.8682 26.0016 22.5773 26.488C21.2864 26.9745 19.8781 27.0851 18.5238 26.8066C17.1695 26.528 15.9275 25.8722 14.9488 24.9189C13.9701 23.9656 13.2969 22.7559 13.011 21.4369C12.7251 20.1179 12.8389 18.7464 13.3386 17.4892C13.8382 16.232 14.7021 15.1433 15.8253 14.3554C16.9485 13.5675 18.2825 13.1145 19.6652 13.0513C20.6578 13.0087 21.6487 13.1678 22.5748 13.5184C23.5009 13.869 24.3419 14.4034 25.0445 15.0877C25.747 15.772 26.2957 16.5912 26.6555 17.4932C27.0154 18.3952 27.1786 19.3602 27.1348 20.327Z" fill="white"/>
</g>
<defs>
<clipPath id="clip0_252_35">
<rect width="40" height="40" fill="white"/>
</clipPath>
</defs>
</svg>
