<svg width="40" height="40" viewBox="0 0 40 40" fill="none" xmlns="http://www.w3.org/2000/svg">
<g clip-path="url(#clip0_252_40)">
<path d="M20.4633 6.18571C20.3393 6.05855 20.1742 5.98758 20.0025 5.98758C19.8308 5.98758 19.6657 6.05855 19.5417 6.18571L4.20003 21.8884C4.13488 21.9552 4.08304 22.0354 4.04766 22.1243C4.01229 22.2131 3.9941 22.3088 3.9942 22.4054L3.9917 37.1429C3.9917 37.9006 4.27265 38.6273 4.77275 39.1632C5.27284 39.699 5.95112 40 6.65836 40H14.6667C15.0203 40 15.3594 39.8495 15.6095 39.5816C15.8595 39.3137 16 38.9503 16 38.5714V26.4286C16 26.2391 16.0702 26.0574 16.1953 25.9235C16.3203 25.7895 16.4899 25.7143 16.6667 25.7143H23.3333C23.5101 25.7143 23.6797 25.7895 23.8047 25.9235C23.9297 26.0574 24 26.2391 24 26.4286V38.5714C24 38.9503 24.1405 39.3137 24.3905 39.5816C24.6406 39.8495 24.9797 40 25.3333 40H33.3383C34.0455 40 34.7238 39.699 35.2239 39.1632C35.724 38.6273 36.005 37.9006 36.005 37.1429V22.4054C36.0051 22.3088 35.9869 22.2131 35.9515 22.1243C35.9161 22.0354 35.8643 21.9552 35.7991 21.8884L20.4633 6.18571Z" fill="white"/>
<path d="M39.5758 18.942L33.3424 12.5527V2.85714C33.3424 2.47826 33.202 2.1149 32.9519 1.84699C32.7019 1.57908 32.3627 1.42857 32.0091 1.42857H28.0091C27.6555 1.42857 27.3164 1.57908 27.0663 1.84699C26.8163 2.1149 26.6758 2.47826 26.6758 2.85714V5.71429L21.8491 0.769643C21.3975 0.280357 20.7258 0 20 0C19.2767 0 18.6067 0.280357 18.155 0.770536L0.430031 18.9402C-0.0883015 19.4759 -0.153301 20.3571 0.318364 20.9375C0.436806 21.084 0.581831 21.2031 0.744612 21.2877C0.907393 21.3722 1.08453 21.4203 1.26523 21.4292C1.44593 21.4381 1.62643 21.4074 1.79573 21.3392C1.96503 21.2709 2.1196 21.1664 2.25003 21.0321L19.5417 3.32857C19.6657 3.20141 19.8308 3.13044 20.0025 3.13044C20.1742 3.13044 20.3392 3.20141 20.4633 3.32857L37.7566 21.0321C38.0113 21.2939 38.3526 21.4367 38.7054 21.4294C39.0583 21.422 39.3941 21.265 39.6391 20.9929C40.1508 20.425 40.1083 19.4875 39.5758 18.942Z" fill="white"/>
</g>
<defs>
<clipPath id="clip0_252_40">
<rect width="40" height="40" fill="white"/>
</clipPath>
</defs>
</svg>
