<svg width="35" height="35" viewBox="0 0 35 35" fill="none" xmlns="http://www.w3.org/2000/svg">
<g clip-path="url(#clip0_280_27)">
<path d="M0 5.46875C0 2.44727 2.44727 0 5.46875 0H29.5312C32.5527 0 35 2.44727 35 5.46875V25.1562C35 26.9473 34.1387 28.5332 32.8125 29.5312V32.8125C32.8125 34.0225 31.835 35 30.625 35H28.4375C27.2275 35 26.25 34.0225 26.25 32.8125V30.625H8.75V32.8125C8.75 34.0225 7.77246 35 6.5625 35H4.375C3.16504 35 2.1875 34.0225 2.1875 32.8125V29.5312C0.861328 28.5332 0 26.9473 0 25.1562V5.46875ZM8.87988 10.4043L7.65625 15.3125H27.3438L26.1201 10.4043C25.874 9.43359 24.999 8.75 23.9941 8.75H11.0059C10.001 8.75 9.12598 9.43359 8.88672 10.4043H8.87988ZM8.75 21.875C8.75 21.2948 8.51953 20.7384 8.1093 20.3282C7.69906 19.918 7.14266 19.6875 6.5625 19.6875C5.98234 19.6875 5.42594 19.918 5.0157 20.3282C4.60547 20.7384 4.375 21.2948 4.375 21.875C4.375 22.4552 4.60547 23.0116 5.0157 23.4218C5.42594 23.832 5.98234 24.0625 6.5625 24.0625C7.14266 24.0625 7.69906 23.832 8.1093 23.4218C8.51953 23.0116 8.75 22.4552 8.75 21.875ZM28.4375 24.0625C29.0177 24.0625 29.5741 23.832 29.9843 23.4218C30.3945 23.0116 30.625 22.4552 30.625 21.875C30.625 21.2948 30.3945 20.7384 29.9843 20.3282C29.5741 19.918 29.0177 19.6875 28.4375 19.6875C27.8573 19.6875 27.3009 19.918 26.8907 20.3282C26.4805 20.7384 26.25 21.2948 26.25 21.875C26.25 22.4552 26.4805 23.0116 26.8907 23.4218C27.3009 23.832 27.8573 24.0625 28.4375 24.0625Z" fill="#F8F8F8"/>
</g>
<defs>
<clipPath id="clip0_280_27">
<rect width="35" height="35" fill="white"/>
</clipPath>
</defs>
</svg>
