<svg width="35" height="25" viewBox="0 0 35 25" fill="none" xmlns="http://www.w3.org/2000/svg">
<path d="M0 2.5C0 1.11929 1.11929 0 2.5 0H32.5C33.8807 0 35 1.11929 35 2.5C35 3.88071 33.8807 5 32.5 5H2.5C1.11929 5 0 3.88071 0 2.5Z" fill="white"/>
<path d="M0 12.5C0 11.1193 1.11929 10 2.5 10H32.5C33.8807 10 35 11.1193 35 12.5C35 13.8807 33.8807 15 32.5 15H2.5C1.11929 15 0 13.8807 0 12.5Z" fill="white"/>
<path d="M0 22.5C0 21.1193 1.11929 20 2.5 20H32.5C33.8807 20 35 21.1193 35 22.5C35 23.8807 33.8807 25 32.5 25H2.5C1.11929 25 0 23.8807 0 22.5Z" fill="white"/>
</svg>
