<svg width="35" height="35" viewBox="0 0 35 35" fill="none" xmlns="http://www.w3.org/2000/svg">
<g clip-path="url(#clip0_252_61)">
<path d="M34.6635 16.3333H22.8846C21.8135 16.3333 20.7864 15.9646 20.029 15.3082C19.2716 14.6518 18.8462 13.7616 18.8462 12.8333V2.625C18.8462 2.54765 18.8107 2.47346 18.7476 2.41876C18.6845 2.36406 18.5989 2.33333 18.5096 2.33333H14.0294C13.8723 2.08114 13.6893 1.84174 13.4826 1.61802C12.5125 0.574583 11.0713 0 9.42308 0C6.25288 0 4.03846 2.15906 4.03846 5.25V15.75C4.03846 17.5729 5.74976 18.6667 7.40385 18.6667C7.84714 18.6709 8.28694 18.5983 8.69743 18.4532C9.10793 18.3081 9.48085 18.0934 9.79433 17.8217C10.1078 17.5501 10.3555 17.2269 10.5229 16.8711C10.6903 16.5153 10.7741 16.1342 10.7692 15.75V4.66667C10.7692 4.35725 10.6274 4.0605 10.375 3.84171C10.1225 3.62292 9.7801 3.5 9.42308 3.5C9.06606 3.5 8.72366 3.62292 8.4712 3.84171C8.21875 4.0605 8.07692 4.35725 8.07692 4.66667V15.75C8.07985 15.8273 8.06444 15.9043 8.03165 15.9762C7.99886 16.0481 7.94939 16.1134 7.8863 16.1681C7.8232 16.2228 7.74783 16.2657 7.66484 16.2941C7.58186 16.3225 7.49303 16.3359 7.40385 16.3333C7.21623 16.3333 6.73077 16.2283 6.73077 15.75V5.25C6.73077 3.83979 7.43834 2.33333 9.42308 2.33333C11.921 2.33333 12.1154 4.53177 12.1154 5.20479V15.322C12.1154 16.5944 11.6552 17.745 10.8189 18.5639C9.96995 19.3958 8.78954 19.8333 7.40385 19.8333C6.01815 19.8333 4.83774 19.3958 3.98882 18.5639C3.15252 17.745 2.69231 16.5944 2.69231 15.322V9.33333C2.69231 9.02391 2.55048 8.72717 2.29803 8.50838C2.04558 8.28958 1.70318 8.16667 1.34615 8.16667C0.989132 8.16667 0.646732 8.28958 0.394279 8.50838C0.141826 8.72717 0 9.02391 0 9.33333V15.322C0 19.0779 2.79243 21.8575 6.73077 22.1419V30.3333C6.73077 31.571 7.29808 32.758 8.30789 33.6332C9.3177 34.5083 10.6873 35 12.1154 35H29.6154C31.0435 35 32.4131 34.5083 33.4229 33.6332C34.4327 32.758 35 31.571 35 30.3333V16.625C35 16.5476 34.9645 16.4735 34.9014 16.4188C34.8383 16.3641 34.7527 16.3333 34.6635 16.3333Z" fill="white"/>
<path d="M22.8846 14H33.8061C33.8393 13.9999 33.8717 13.9913 33.8992 13.9752C33.9268 13.9592 33.9482 13.9365 33.9609 13.9099C33.9736 13.8833 33.9769 13.8541 33.9705 13.8259C33.9641 13.7977 33.9482 13.7717 33.9248 13.7514L21.8254 3.26521C21.8018 3.24494 21.7719 3.23115 21.7394 3.22557C21.7068 3.21999 21.6731 3.22288 21.6424 3.23387C21.6118 3.24485 21.5855 3.26345 21.567 3.28732C21.5485 3.31119 21.5386 3.33927 21.5385 3.36802V12.8333C21.5385 13.1428 21.6803 13.4395 21.9327 13.6583C22.1852 13.8771 22.5276 14 22.8846 14Z" fill="white"/>
</g>
<defs>
<clipPath id="clip0_252_61">
<rect width="35" height="35" fill="white"/>
</clipPath>
</defs>
</svg>
