<svg width="35" height="35" viewBox="0 0 35 35" fill="none" xmlns="http://www.w3.org/2000/svg">
<g clip-path="url(#clip0_252_69)">
<path d="M33.0565 8.14749C33.1073 8.11997 33.1494 8.08057 33.1787 8.03321C33.208 7.98586 33.2234 7.9322 33.2234 7.87759C33.2234 7.82298 33.208 7.76933 33.1787 7.72197C33.1494 7.67462 33.1073 7.63522 33.0565 7.6077L20.2058 0.675566C19.3835 0.233047 18.45 0 17.4996 0C16.5492 0 15.6156 0.233047 14.7934 0.675566L1.9452 7.6077C1.8944 7.63522 1.85225 7.67462 1.82296 7.72197C1.79366 7.76933 1.77825 7.82298 1.77825 7.87759C1.77825 7.9322 1.79366 7.98586 1.82296 8.03321C1.85225 8.08057 1.8944 8.11997 1.9452 8.14749L17.3317 16.5514C17.3835 16.5797 17.4425 16.5946 17.5025 16.5946C17.5626 16.5946 17.6216 16.5797 17.6733 16.5514L33.0565 8.14749ZM0.504815 10.2731C0.453494 10.2455 0.395259 10.2311 0.335999 10.2312C0.276738 10.2313 0.218553 10.2459 0.167328 10.2736C0.116103 10.3012 0.0736541 10.341 0.0442735 10.3887C0.0148929 10.4365 -0.000377326 10.4907 7.08237e-06 10.5457V24.1295C0.00127727 24.7841 0.187096 25.427 0.538984 25.9942C0.890872 26.5615 1.39657 27.0333 2.00578 27.3628L15.649 34.9581C15.7002 34.9855 15.7582 35 15.8172 35C15.8763 35 15.9343 34.9856 15.9854 34.9582C16.0366 34.9308 16.0791 34.8914 16.1086 34.844C16.1382 34.7965 16.1538 34.7427 16.1538 34.6879V18.9277C16.1538 18.8729 16.1382 18.8191 16.1087 18.7716C16.0791 18.7242 16.0367 18.6848 15.9856 18.6574L0.504815 10.2731ZM18.8462 18.9824V34.6839C18.8462 34.7388 18.8618 34.7926 18.8914 34.8401C18.9209 34.8875 18.9634 34.9269 19.0146 34.9543C19.0657 34.9817 19.1237 34.9961 19.1828 34.9961C19.2418 34.9961 19.2998 34.9816 19.351 34.9542L32.9934 27.3589C33.6021 27.0298 34.1076 26.5587 34.4596 25.9922C34.8116 25.4257 34.9979 24.7835 35 24.1295V10.5457C34.9998 10.4909 34.9841 10.4372 34.9545 10.3898C34.9248 10.3425 34.8823 10.3032 34.8312 10.2759C34.7801 10.2486 34.7221 10.2343 34.6632 10.2343C34.6042 10.2344 34.5463 10.2488 34.4952 10.2762L19.0144 18.7129C18.9634 18.7402 18.9211 18.7795 18.8915 18.8268C18.862 18.874 18.8464 18.9277 18.8462 18.9824Z" fill="white"/>
</g>
<defs>
<clipPath id="clip0_252_69">
<rect width="35" height="35" fill="white"/>
</clipPath>
</defs>
</svg>
