<svg width="35" height="35" viewBox="0 0 35 35" fill="none" xmlns="http://www.w3.org/2000/svg">
<path d="M17.8801 6.92344C17.7783 6.82608 17.6429 6.77174 17.5021 6.77174C17.3612 6.77174 17.2258 6.82608 17.124 6.92344L4.53906 18.9458C4.48562 18.9969 4.4431 19.0584 4.41407 19.1264C4.38505 19.1944 4.37013 19.2676 4.37021 19.3416L4.36816 30.625C4.36816 31.2052 4.59863 31.7616 5.00887 32.1718C5.4191 32.582 5.9755 32.8125 6.55566 32.8125H13.125C13.4151 32.8125 13.6933 32.6973 13.8984 32.4922C14.1035 32.287 14.2188 32.0088 14.2188 31.7188V22.4219C14.2188 22.2768 14.2764 22.1377 14.3789 22.0352C14.4815 21.9326 14.6206 21.875 14.7656 21.875H20.2344C20.3794 21.875 20.5185 21.9326 20.6211 22.0352C20.7236 22.1377 20.7813 22.2768 20.7813 22.4219V31.7188C20.7813 32.0088 20.8965 32.287 21.1016 32.4922C21.3067 32.6973 21.5849 32.8125 21.875 32.8125H28.4416C29.0218 32.8125 29.5782 32.582 29.9884 32.1718C30.3986 31.7616 30.6291 31.2052 30.6291 30.625V19.3416C30.6292 19.2676 30.6143 19.1944 30.5852 19.1264C30.5562 19.0584 30.5137 18.9969 30.4603 18.9458L17.8801 6.92344Z" fill="white"/>
<path d="M33.5583 16.6899L28.445 11.7981V4.375C28.445 4.08492 28.3298 3.80672 28.1247 3.6016C27.9196 3.39648 27.6414 3.28125 27.3513 3.28125H24.07C23.78 3.28125 23.5018 3.39648 23.2966 3.6016C23.0915 3.80672 22.9763 4.08492 22.9763 4.375V6.5625L19.0169 2.77676C18.6464 2.40215 18.0954 2.1875 17.5 2.1875C16.9067 2.1875 16.3571 2.40215 15.9865 2.77744L1.44651 16.6886C1.02131 17.0987 0.967995 17.7734 1.35491 18.2178C1.45207 18.3299 1.57103 18.4211 1.70457 18.4859C1.8381 18.5506 1.9834 18.5875 2.13164 18.5942C2.27987 18.601 2.42793 18.5776 2.56681 18.5253C2.70569 18.473 2.83249 18.3931 2.93948 18.2902L17.124 4.73594C17.2258 4.63858 17.3612 4.58424 17.5021 4.58424C17.6429 4.58424 17.7783 4.63858 17.8801 4.73594L32.066 18.2902C32.275 18.4906 32.5549 18.6 32.8444 18.5944C33.1338 18.5887 33.4093 18.4685 33.6103 18.2602C34.03 17.8254 33.9951 17.1076 33.5583 16.6899Z" fill="white"/>
</svg>
