<svg width="35" height="35" viewBox="0 0 35 35" fill="none" xmlns="http://www.w3.org/2000/svg">
<path d="M27.0455 29.375C26.4125 29.375 25.8056 29.0984 25.358 28.6062C24.9105 28.1139 24.6591 27.4462 24.6591 26.75C24.6591 26.0538 24.9105 25.3861 25.358 24.8938C25.8056 24.4016 26.4125 24.125 27.0455 24.125C27.6784 24.125 28.2853 24.4016 28.7329 24.8938C29.1804 25.3861 29.4318 26.0538 29.4318 26.75C29.4318 27.4462 29.1804 28.1139 28.7329 28.6062C28.2853 29.0984 27.6784 29.375 27.0455 29.375ZM29.4318 13.625L31.4236 16.4196C31.8954 17.0816 31.4222 18 30.6093 18H26.4545C25.9023 18 25.4545 17.5523 25.4545 17V13.625M7.95454 29.375C7.32164 29.375 6.71466 29.0984 6.26713 28.6062C5.8196 28.1139 5.56818 27.4462 5.56818 26.75C5.56818 26.0538 5.8196 25.3861 6.26713 24.8938C6.71466 24.4016 7.32164 24.125 7.95454 24.125C8.58745 24.125 9.19443 24.4016 9.64196 24.8938C10.0895 25.3861 10.3409 26.0538 10.3409 26.75C10.3409 27.4462 10.0895 28.1139 9.64196 28.6062C9.19443 29.0984 8.58745 29.375 7.95454 29.375ZM30.525 11.4367C30.3387 11.1635 30.0294 11 29.6988 11H26.4545C25.9023 11 25.4545 10.5523 25.4545 10V5C25.4545 4.44772 25.0068 4 24.4545 4H3.18182C1.41591 4 0 5.5575 0 7.5V25.75C0 26.3023 0.447715 26.75 1 26.75H3.18182C3.18182 28.1424 3.68466 29.4777 4.57972 30.4623C5.47478 31.4469 6.68874 32 7.95454 32C9.22035 32 10.4343 31.4469 11.3294 30.4623C12.2244 29.4777 12.7273 28.1424 12.7273 26.75H22.2727C22.2727 28.1424 22.7756 29.4777 23.6706 30.4623C24.5657 31.4469 25.7796 32 27.0455 32C28.3113 32 29.5252 31.4469 30.4203 30.4623C31.3153 29.4777 31.8182 28.1424 31.8182 26.75H34C34.5523 26.75 35 26.3023 35 25.75V18.3085C35 18.1075 34.9394 17.9112 34.8262 17.7451L30.525 11.4367Z" fill="white"/>
</svg>
